# xmcd CD database file
#
# Track frame offsets:
#	150
#	19669
#	31436
#	40358
#	52799
#	66143
#	80102
#	96823
#	109230
#	120883
#
# Disc length: 1819 seconds
#
# Revision: 0
# Processed by: cddbd v1.5.2PL0 Copyright (c) Steve Scherf et al.
# Submitted via: CDex 1.70beta2
#
DISCID=7907190a
DTITLE=BoCL - Best of Country Ledgends
DYEAR=1900
DGENRE=Country
TTITLE0=She Believes in Me - Kenny Rogers
TTITLE1=Walkin' After Midnight - Patsy Cline
TTITLE2=Mr. Lovemaker - Johnny Paycheck
TTITLE3=End of The World - Skeeter Davis
TTITLE4=Four in the Morning - Faron Young
TTITLE5=REose Garden - Lynn Anderson
TTITLE6=For The Good Times - David Houston
TTITLE7=A Poor Man's Rose(Or A Rich Man's Gold) - Patsy Cline
TTITLE8=Take This Job and Shove It - Johnny Paycheck
TTITLE9=Through the Years - Kenny Rogersa
EXTD=
EXTT0=
EXTT1=
EXTT2=
EXTT3=
EXTT4=
EXTT5=
EXTT6=
EXTT7=
EXTT8=
EXTT9=
PLAYORDER=
